<?plantuml 1.2026.1?><svg xmlns="http://www.w3.org/2000/svg" xmlns:xlink="http://www.w3.org/1999/xlink" contentStyleType="text/css" data-diagram-type="DESCRIPTION" height="3659.375px" preserveAspectRatio="none" style="width:4653px;height:3659px;background:#FEFEFE;" version="1.1" viewBox="0 0 4653 3659" width="4653.125px" zoomAndPan="magnify"><defs/><g><rect fill="#FEFEFE" height="3659.375" style="stroke:none;stroke-width:3.125;" width="4653.125" x="0" y="0"/><!--cluster Traditional Zakat Systems--><g class="cluster" data-qualified-name="Traditional Zakat Systems" data-source-line="10" id="ent0002"><path d="M26.5625,113.7813 L539.1525,113.7813 A11.7188,11.7188 0 0 1 546.965,121.5938 L568.84,172.5459 L2473.4375,172.5459 A7.8125,7.8125 0 0 1 2481.25,180.3584 L2481.25,1452.25 A7.8125,7.8125 0 0 1 2473.4375,1460.0625 L26.5625,1460.0625 A7.8125,7.8125 0 0 1 18.75,1452.25 L18.75,121.5938 A7.8125,7.8125 0 0 1 26.5625,113.7813" fill="none" style="stroke:#000000;stroke-width:4.6875;"/><line style="stroke:#000000;stroke-width:4.6875;" x1="18.75" x2="568.84" y1="172.5459" y2="172.5459"/><text fill="#000000" font-family="Arial" font-size="34.375" font-weight="bold" lengthAdjust="spacing" textLength="509.465" x="31.25" y="151.9389">Traditional Zakat Systems</text></g><!--cluster Public Blockchain Ledger--><g class="cluster" data-qualified-name="Traditional Zakat Systems.Public Blockchain Ledger" data-source-line="15" id="ent0006"><rect fill="none" height="280.625" rx="7.8125" ry="7.8125" style="stroke:#181818;stroke-width:3.125;" width="2118.75" x="287.5" y="1104.4375"/><text fill="#000000" font-family="Arial" font-size="34.375" font-weight="bold" lengthAdjust="spacing" textLength="485.9833" x="1103.8834" y="1142.5952">Public Blockchain Ledger</text></g><!--cluster ZKT Proposed Model--><g class="cluster" data-qualified-name="ZKT Proposed Model" data-source-line="30" id="ent0017"><path d="M2564.0625,18.75 L2966.0248,18.75 A11.7188,11.7188 0 0 1 2973.8373,26.5625 L2995.7123,77.5146 L4623.4375,77.5146 A7.8125,7.8125 0 0 1 4631.25,85.3271 L4631.25,3631.75 A7.8125,7.8125 0 0 1 4623.4375,3639.5625 L2564.0625,3639.5625 A7.8125,7.8125 0 0 1 2556.25,3631.75 L2556.25,26.5625 A7.8125,7.8125 0 0 1 2564.0625,18.75" fill="none" style="stroke:#000000;stroke-width:4.6875;"/><line style="stroke:#000000;stroke-width:4.6875;" x1="2556.25" x2="2995.7123" y1="77.5146" y2="77.5146"/><text fill="#000000" font-family="Arial" font-size="34.375" font-weight="bold" lengthAdjust="spacing" textLength="398.8373" x="2568.75" y="56.9077">ZKT Proposed Model</text></g><!--cluster Proving--><g class="cluster" data-qualified-name="ZKT Proposed Model.Proving" data-source-line="35" id="ent0021"><rect fill="none" height="779.4375" rx="7.8125" ry="7.8125" style="stroke:#181818;stroke-width:3.125;" width="531.25" x="3712.5" y="140.625"/><text fill="#000000" font-family="Arial" font-size="34.375" font-weight="bold" lengthAdjust="spacing" textLength="343.5486" x="3806.3507" y="178.7827">Off-Chain Proving</text></g><!--cluster Sepolia--><g class="cluster" data-qualified-name="ZKT Proposed Model.Sepolia" data-source-line="40" id="ent0024"><rect fill="none" height="2069.5" rx="7.8125" ry="7.8125" style="stroke:#181818;stroke-width:3.125;" width="1546.875" x="2631.25" y="1084.4375"/><text fill="#000000" font-family="Arial" font-size="34.375" font-weight="bold" lengthAdjust="spacing" textLength="343.28" x="3233.0475" y="1122.5952">Ethereum Sepolia</text></g><!--entity Donor_T--><g class="entity" data-qualified-name="Traditional Zakat Systems.Donor_T" data-source-line="11" id="ent0003"><ellipse cx="1034.3817" cy="237.2188" fill="#F1F1F1" rx="25" ry="25" style="stroke:#181818;stroke-width:1.5625;"/><path d="M1034.3817,262.2188 L1034.3817,346.5938 M993.7567,287.2188 L1075.0067,287.2188 M1034.3817,346.5938 L993.7567,393.4688 M1034.3817,346.5938 L1075.0067,393.4688" fill="none" style="stroke:#181818;stroke-width:1.5625;"/><text fill="#000000" font-family="Arial" font-size="34.375" lengthAdjust="spacing" textLength="104.451" x="982.1563" y="430.0639">Donor</text></g><!--entity Amil_T--><g class="entity" data-qualified-name="Traditional Zakat Systems.Amil_T" data-source-line="12" id="ent0004"><ellipse cx="1034.375" cy="695.9688" fill="#F1F1F1" rx="25" ry="25" style="stroke:#181818;stroke-width:1.5625;"/><path d="M1034.375,720.9688 L1034.375,805.3438 M993.75,745.9688 L1075,745.9688 M1034.375,805.3438 L993.75,852.2188 M1034.375,805.3438 L1075,852.2188" fill="none" style="stroke:#181818;stroke-width:1.5625;"/><text fill="#000000" font-family="Arial" font-size="34.375" lengthAdjust="spacing" textLength="76.1017" x="996.3242" y="888.8139">Amil</text></g><!--entity Recipient_T--><g class="entity" data-qualified-name="Traditional Zakat Systems.Recipient_T" data-source-line="13" id="ent0005"><ellipse cx="150.0085" cy="1181" fill="#F1F1F1" rx="25" ry="25" style="stroke:#181818;stroke-width:1.5625;"/><path d="M150.0085,1206 L150.0085,1290.375 M109.3835,1231 L190.6335,1231 M150.0085,1290.375 L109.3835,1337.25 M150.0085,1290.375 L190.6335,1337.25" fill="none" style="stroke:#181818;stroke-width:1.5625;"/><text fill="#000000" font-family="Arial" font-size="34.375" lengthAdjust="spacing" textLength="161.2671" x="69.375" y="1373.8452">Recipient</text></g><!--entity DonorID--><g class="entity" data-qualified-name="Traditional Zakat Systems.Public Blockchain Ledger.DonorID" data-source-line="16" id="ent0007"><rect fill="#F1F1F1" height="133.7646" rx="7.8125" ry="7.8125" style="stroke:#181818;stroke-width:1.5625;" width="372.1207" x="338.9375" y="1201.3125"/><rect fill="#F1F1F1" height="31.25" style="stroke:#181818;stroke-width:1.5625;" width="46.875" x="648.5582" y="1216.9375"/><rect fill="#F1F1F1" height="6.25" style="stroke:#181818;stroke-width:1.5625;" width="12.5" x="642.3082" y="1223.1875"/><rect fill="#F1F1F1" height="6.25" style="stroke:#181818;stroke-width:1.5625;" width="12.5" x="642.3082" y="1235.6875"/><text fill="#000000" font-family="Arial" font-size="34.375" lengthAdjust="spacing" textLength="247.1207" x="385.8125" y="1295.7202">Donor Identity</text></g><!--entity RecipientID--><g class="entity" data-qualified-name="Traditional Zakat Systems.Public Blockchain Ledger.RecipientID" data-source-line="17" id="ent0008"><rect fill="#F1F1F1" height="133.7646" rx="7.8125" ry="7.8125" style="stroke:#181818;stroke-width:1.5625;" width="428.9368" x="819.9063" y="1201.3125"/><rect fill="#F1F1F1" height="31.25" style="stroke:#181818;stroke-width:1.5625;" width="46.875" x="1186.343" y="1216.9375"/><rect fill="#F1F1F1" height="6.25" style="stroke:#181818;stroke-width:1.5625;" width="12.5" x="1180.093" y="1223.1875"/><rect fill="#F1F1F1" height="6.25" style="stroke:#181818;stroke-width:1.5625;" width="12.5" x="1180.093" y="1235.6875"/><text fill="#000000" font-family="Arial" font-size="34.375" lengthAdjust="spacing" textLength="303.9368" x="866.7813" y="1295.7202">Recipient Identity</text></g><!--entity Amount--><g class="entity" data-qualified-name="Traditional Zakat Systems.Public Blockchain Ledger.Amount" data-source-line="18" id="ent0009"><rect fill="#F1F1F1" height="133.7646" rx="7.8125" ry="7.8125" style="stroke:#181818;stroke-width:1.5625;" width="427.2079" x="1358.2813" y="1201.3125"/><rect fill="#F1F1F1" height="31.25" style="stroke:#181818;stroke-width:1.5625;" width="46.875" x="1722.9892" y="1216.9375"/><rect fill="#F1F1F1" height="6.25" style="stroke:#181818;stroke-width:1.5625;" width="12.5" x="1716.7392" y="1223.1875"/><rect fill="#F1F1F1" height="6.25" style="stroke:#181818;stroke-width:1.5625;" width="12.5" x="1716.7392" y="1235.6875"/><text fill="#000000" font-family="Arial" font-size="34.375" lengthAdjust="spacing" textLength="302.2079" x="1405.1563" y="1295.7202">Donation Amount</text></g><!--entity History--><g class="entity" data-qualified-name="Traditional Zakat Systems.Public Blockchain Ledger.History" data-source-line="19" id="ent0010"><rect fill="#F1F1F1" height="133.7646" rx="7.8125" ry="7.8125" style="stroke:#181818;stroke-width:1.5625;" width="459.9213" x="1895.0313" y="1201.3125"/><rect fill="#F1F1F1" height="31.25" style="stroke:#181818;stroke-width:1.5625;" width="46.875" x="2292.4525" y="1216.9375"/><rect fill="#F1F1F1" height="6.25" style="stroke:#181818;stroke-width:1.5625;" width="12.5" x="2286.2025" y="1223.1875"/><rect fill="#F1F1F1" height="6.25" style="stroke:#181818;stroke-width:1.5625;" width="12.5" x="2286.2025" y="1235.6875"/><text fill="#000000" font-family="Arial" font-size="34.375" lengthAdjust="spacing" textLength="334.9213" x="1941.9063" y="1295.7202">Transaction History</text></g><!--entity Donor_Z--><g class="entity" data-qualified-name="ZKT Proposed Model.Donor_Z" data-source-line="31" id="ent0018"><ellipse cx="4290.6317" cy="3388.625" fill="#F1F1F1" rx="25" ry="25" style="stroke:#181818;stroke-width:1.5625;"/><path d="M4290.6317,3413.625 L4290.6317,3498 M4250.0067,3438.625 L4331.2567,3438.625 M4290.6317,3498 L4250.0067,3544.875 M4290.6317,3498 L4331.2567,3544.875" fill="none" style="stroke:#181818;stroke-width:1.5625;"/><text fill="#000000" font-family="Arial" font-size="34.375" lengthAdjust="spacing" textLength="104.451" x="4238.4063" y="3581.4702">Donor</text></g><!--entity Organizer_Z--><g class="entity" data-qualified-name="ZKT Proposed Model.Organizer_Z" data-source-line="32" id="ent0019"><ellipse cx="3137.4931" cy="695.9688" fill="#F1F1F1" rx="25" ry="25" style="stroke:#181818;stroke-width:1.5625;"/><path d="M3137.4931,720.9688 L3137.4931,805.3438 M3096.8681,745.9688 L3178.1181,745.9688 M3137.4931,805.3438 L3096.8681,852.2188 M3137.4931,805.3438 L3178.1181,852.2188" fill="none" style="stroke:#181818;stroke-width:1.5625;"/><text fill="#000000" font-family="Arial" font-size="34.375" lengthAdjust="spacing" textLength="168.7363" x="3053.125" y="888.8139">Organizer</text></g><!--entity Recipient_Z--><g class="entity" data-qualified-name="ZKT Proposed Model.Recipient_Z" data-source-line="33" id="ent0020"><ellipse cx="4309.3835" cy="2929.8438" fill="#F1F1F1" rx="25" ry="25" style="stroke:#181818;stroke-width:1.5625;"/><path d="M4309.3835,2954.8438 L4309.3835,3039.2188 M4268.7585,2979.8438 L4350.0085,2979.8438 M4309.3835,3039.2188 L4268.7585,3086.0938 M4309.3835,3039.2188 L4350.0085,3086.0938" fill="none" style="stroke:#181818;stroke-width:1.5625;"/><text fill="#000000" font-family="Arial" font-size="34.375" lengthAdjust="spacing" textLength="161.2671" x="4228.75" y="3122.6889">Recipient</text></g><!--entity NoirCircuit--><g class="entity" data-qualified-name="ZKT Proposed Model.Proving.NoirCircuit" data-source-line="36" id="ent0022"><rect fill="#F1F1F1" height="173.7793" rx="7.8125" ry="7.8125" style="stroke:#181818;stroke-width:1.5625;" width="375.1251" x="3790.5625" y="237.5"/><rect fill="#F1F1F1" height="31.25" style="stroke:#181818;stroke-width:1.5625;" width="46.875" x="4103.1876" y="253.125"/><rect fill="#F1F1F1" height="6.25" style="stroke:#181818;stroke-width:1.5625;" width="12.5" x="4096.9376" y="259.375"/><rect fill="#F1F1F1" height="6.25" style="stroke:#181818;stroke-width:1.5625;" width="12.5" x="4096.9376" y="271.875"/><text fill="#000000" font-family="Arial" font-size="34.375" lengthAdjust="spacing" textLength="192.7551" x="3837.4375" y="331.9077">Noir Circuit</text><text fill="#000000" font-family="Arial" font-size="34.375" lengthAdjust="spacing" textLength="250.1251" x="3837.4375" y="371.9223">(nisab + hawl)</text></g><!--entity BBProver--><g class="entity" data-qualified-name="ZKT Proposed Model.Proving.BBProver" data-source-line="37" id="ent0023"><rect fill="#F1F1F1" height="173.7793" rx="7.8125" ry="7.8125" style="stroke:#181818;stroke-width:1.5625;" width="431.9916" x="3762.125" y="696.2813"/><rect fill="#F1F1F1" height="31.25" style="stroke:#181818;stroke-width:1.5625;" width="46.875" x="4131.6166" y="711.9063"/><rect fill="#F1F1F1" height="6.25" style="stroke:#181818;stroke-width:1.5625;" width="12.5" x="4125.3666" y="718.1563"/><rect fill="#F1F1F1" height="6.25" style="stroke:#181818;stroke-width:1.5625;" width="12.5" x="4125.3666" y="730.6563"/><text fill="#000000" font-family="Arial" font-size="34.375" lengthAdjust="spacing" textLength="229.3961" x="3809" y="790.6889">Barretenberg</text><text fill="#000000" font-family="Arial" font-size="34.375" lengthAdjust="spacing" textLength="306.9916" x="3809" y="830.7036">UltraHONK Prover</text></g><!--entity ZKVerifier--><g class="entity" data-qualified-name="ZKT Proposed Model.Sepolia.ZKVerifier" data-source-line="41" id="ent0025"><rect fill="#F1F1F1" height="173.7793" rx="7.8125" ry="7.8125" style="stroke:#181818;stroke-width:1.5625;" width="363.9969" x="3711.75" y="1181.3125"/><rect fill="#F1F1F1" height="31.25" style="stroke:#181818;stroke-width:1.5625;" width="46.875" x="4013.2469" y="1196.9375"/><rect fill="#F1F1F1" height="6.25" style="stroke:#181818;stroke-width:1.5625;" width="12.5" x="4006.9969" y="1203.1875"/><rect fill="#F1F1F1" height="6.25" style="stroke:#181818;stroke-width:1.5625;" width="12.5" x="4006.9969" y="1215.6875"/><text fill="#000000" font-family="Arial" font-size="34.375" lengthAdjust="spacing" textLength="171.3715" x="3758.625" y="1275.7202">ZKVerifier</text><text fill="#000000" font-family="Arial" font-size="34.375" lengthAdjust="spacing" textLength="238.9969" x="3758.625" y="1315.7348">(hash anchor)</text></g><!--entity Groth16--><g class="entity" data-qualified-name="ZKT Proposed Model.Sepolia.Groth16" data-source-line="42" id="ent0026"><rect fill="#F1F1F1" height="173.7793" rx="7.8125" ry="7.8125" style="stroke:#181818;stroke-width:1.5625;" width="391.0873" x="2698.2188" y="1647.5625"/><rect fill="#F1F1F1" height="31.25" style="stroke:#181818;stroke-width:1.5625;" width="46.875" x="3026.8061" y="1663.1875"/><rect fill="#F1F1F1" height="6.25" style="stroke:#181818;stroke-width:1.5625;" width="12.5" x="3020.5561" y="1669.4375"/><rect fill="#F1F1F1" height="6.25" style="stroke:#181818;stroke-width:1.5625;" width="12.5" x="3020.5561" y="1681.9375"/><text fill="#000000" font-family="Arial" font-size="34.375" lengthAdjust="spacing" textLength="266.0873" x="2745.0938" y="1741.9702">Groth16Verifier</text><text fill="#000000" font-family="Arial" font-size="34.375" lengthAdjust="spacing" textLength="251.2833" x="2745.0938" y="1781.9848">(sharia proofs)</text></g><!--entity ZKTCore--><g class="entity" data-qualified-name="ZKT Proposed Model.Sepolia.ZKTCore" data-source-line="43" id="ent0027"><rect fill="#F1F1F1" height="173.7793" rx="7.8125" ry="7.8125" style="stroke:#181818;stroke-width:1.5625;" width="364.0472" x="3589.8438" y="1647.5625"/><rect fill="#F1F1F1" height="31.25" style="stroke:#181818;stroke-width:1.5625;" width="46.875" x="3891.391" y="1663.1875"/><rect fill="#F1F1F1" height="6.25" style="stroke:#181818;stroke-width:1.5625;" width="12.5" x="3885.141" y="1669.4375"/><rect fill="#F1F1F1" height="6.25" style="stroke:#181818;stroke-width:1.5625;" width="12.5" x="3885.141" y="1681.9375"/><text fill="#000000" font-family="Arial" font-size="34.375" lengthAdjust="spacing" textLength="147.403" x="3636.7188" y="1741.9702">ZKTCore</text><text fill="#000000" font-family="Arial" font-size="34.375" lengthAdjust="spacing" textLength="239.0472" x="3636.7188" y="1781.9848">(orchestrator)</text></g><!--entity ShariaMgr--><g class="entity" data-qualified-name="ZKT Proposed Model.Sepolia.ShariaMgr" data-source-line="44" id="ent0028"><rect fill="#F1F1F1" height="173.7793" rx="7.8125" ry="7.8125" style="stroke:#181818;stroke-width:1.5625;" width="424.2203" x="2681.625" y="2052.5938"/><rect fill="#F1F1F1" height="31.25" style="stroke:#181818;stroke-width:1.5625;" width="46.875" x="3043.3453" y="2068.2188"/><rect fill="#F1F1F1" height="6.25" style="stroke:#181818;stroke-width:1.5625;" width="12.5" x="3037.0953" y="2074.4688"/><rect fill="#F1F1F1" height="6.25" style="stroke:#181818;stroke-width:1.5625;" width="12.5" x="3037.0953" y="2086.9688"/><text fill="#000000" font-family="Arial" font-size="34.375" lengthAdjust="spacing" textLength="299.2203" x="2728.5" y="2147.0014">ShariaReviewMgr</text><text fill="#000000" font-family="Arial" font-size="34.375" lengthAdjust="spacing" textLength="267.2791" x="2728.5" y="2187.0161">(council proofs)</text></g><!--entity Escrow--><g class="entity" data-qualified-name="ZKT Proposed Model.Sepolia.Escrow" data-source-line="45" id="ent0029"><rect fill="#F1F1F1" height="173.7793" rx="7.8125" ry="7.8125" style="stroke:#181818;stroke-width:1.5625;" width="416.0797" x="3688.8438" y="2457.625"/><rect fill="#F1F1F1" height="31.25" style="stroke:#181818;stroke-width:1.5625;" width="46.875" x="4042.4235" y="2473.25"/><rect fill="#F1F1F1" height="6.25" style="stroke:#181818;stroke-width:1.5625;" width="12.5" x="4036.1735" y="2479.5"/><rect fill="#F1F1F1" height="6.25" style="stroke:#181818;stroke-width:1.5625;" width="12.5" x="4036.1735" y="2492"/><text fill="#000000" font-family="Arial" font-size="34.375" lengthAdjust="spacing" textLength="286.4807" x="3735.7188" y="2552.0327">ZakatEscrowMgr</text><text fill="#000000" font-family="Arial" font-size="34.375" lengthAdjust="spacing" textLength="291.0797" x="3735.7188" y="2592.0473">(30-day timeout)</text></g><!--entity PrivatePool--><g class="entity" data-qualified-name="ZKT Proposed Model.Sepolia.PrivatePool" data-source-line="46" id="ent0030"><rect fill="#F1F1F1" height="173.7793" rx="7.8125" ry="7.8125" style="stroke:#181818;stroke-width:1.5625;" width="473.9868" x="3216.125" y="2052.5938"/><rect fill="#F1F1F1" height="31.25" style="stroke:#181818;stroke-width:1.5625;" width="46.875" x="3627.6118" y="2068.2188"/><rect fill="#F1F1F1" height="6.25" style="stroke:#181818;stroke-width:1.5625;" width="12.5" x="3621.3618" y="2074.4688"/><rect fill="#F1F1F1" height="6.25" style="stroke:#181818;stroke-width:1.5625;" width="12.5" x="3621.3618" y="2086.9688"/><text fill="#000000" font-family="Arial" font-size="34.375" lengthAdjust="spacing" textLength="348.9868" x="3263" y="2147.0014">PrivateDonationPool</text><text fill="#000000" font-family="Arial" font-size="34.375" lengthAdjust="spacing" textLength="275.3189" x="3263" y="2187.0161">(circuit-verified)</text></g><!--entity ReceiptNFT--><g class="entity" data-qualified-name="ZKT Proposed Model.Sepolia.ReceiptNFT" data-source-line="47" id="ent0031"><rect fill="#F1F1F1" height="173.7793" rx="7.8125" ry="7.8125" style="stroke:#181818;stroke-width:1.5625;" width="477.6123" x="3642.4375" y="2930.1563"/><rect fill="#F1F1F1" height="31.25" style="stroke:#181818;stroke-width:1.5625;" width="46.875" x="4057.5498" y="2945.7813"/><rect fill="#F1F1F1" height="6.25" style="stroke:#181818;stroke-width:1.5625;" width="12.5" x="4051.2998" y="2952.0313"/><rect fill="#F1F1F1" height="6.25" style="stroke:#181818;stroke-width:1.5625;" width="12.5" x="4051.2998" y="2964.5313"/><text fill="#000000" font-family="Arial" font-size="34.375" lengthAdjust="spacing" textLength="352.6123" x="3689.3125" y="3024.5639">DonationReceiptNFT</text><text fill="#000000" font-family="Arial" font-size="34.375" lengthAdjust="spacing" textLength="93.222" x="3689.3125" y="3064.5786">(SBT)</text></g><!--entity VotingNFT--><g class="entity" data-qualified-name="ZKT Proposed Model.Sepolia.VotingNFT" data-source-line="48" id="ent0032"><rect fill="#F1F1F1" height="173.7793" rx="7.8125" ry="7.8125" style="stroke:#181818;stroke-width:1.5625;" width="302.6657" x="2779.9063" y="1181.3125"/><rect fill="#F1F1F1" height="31.25" style="stroke:#181818;stroke-width:1.5625;" width="46.875" x="3020.072" y="1196.9375"/><rect fill="#F1F1F1" height="6.25" style="stroke:#181818;stroke-width:1.5625;" width="12.5" x="3013.822" y="1203.1875"/><rect fill="#F1F1F1" height="6.25" style="stroke:#181818;stroke-width:1.5625;" width="12.5" x="3013.822" y="1215.6875"/><text fill="#000000" font-family="Arial" font-size="34.375" lengthAdjust="spacing" textLength="177.6657" x="2826.7813" y="1275.7202">VotingNFT</text><text fill="#000000" font-family="Arial" font-size="34.375" lengthAdjust="spacing" textLength="128.1006" x="2826.7813" y="1315.7348">(tiered)</text></g><!--entity OrganizerNFT--><g class="entity" data-qualified-name="ZKT Proposed Model.Sepolia.OrganizerNFT" data-source-line="49" id="ent0033"><rect fill="#F1F1F1" height="173.7793" rx="7.8125" ry="7.8125" style="stroke:#181818;stroke-width:1.5625;" width="360.2203" x="3191.75" y="1181.3125"/><rect fill="#F1F1F1" height="31.25" style="stroke:#181818;stroke-width:1.5625;" width="46.875" x="3489.4703" y="1196.9375"/><rect fill="#F1F1F1" height="6.25" style="stroke:#181818;stroke-width:1.5625;" width="12.5" x="3483.2203" y="1203.1875"/><rect fill="#F1F1F1" height="6.25" style="stroke:#181818;stroke-width:1.5625;" width="12.5" x="3483.2203" y="1215.6875"/><text fill="#000000" font-family="Arial" font-size="34.375" lengthAdjust="spacing" textLength="235.2203" x="3238.625" y="1275.7202">OrganizerNFT</text><text fill="#000000" font-family="Arial" font-size="34.375" lengthAdjust="spacing" textLength="94.3634" x="3238.625" y="1315.7348">(KYC)</text></g><!--link Donor_T to Amil_T--><g class="link" data-entity-1="ent0003" data-entity-2="ent0004" data-link-type="dependency" data-source-line="22" id="lnk11"><path d="M1034.375,439.375 C1034.375,509 1034.375,579.4688 1034.375,649.1563" fill="none" id="Donor_T-to-Amil_T" style="stroke:#181818;stroke-width:3.125;"/><polygon fill="#181818" points="1034.375,667.9063,1046.875,639.7813,1034.375,652.2813,1021.875,639.7813,1034.375,667.9063" style="stroke:#181818;stroke-width:3.125;"/><text fill="#000000" font-family="Arial" font-size="34.375" lengthAdjust="spacing" textLength="156.1981" x="1037.5" y="566.9389">Donation</text></g><!--link Amil_T to Recipient_T--><g class="link" data-entity-1="ent0004" data-entity-2="ent0005" data-link-type="dependency" data-source-line="23" id="lnk12"><path d="M991.0313,792.5 C868.625,811.9063 514.375,881.125 287.5,1059.4375 C255.4063,1084.625 238.2833,1103.6176 216.752,1137.4614" fill="none" id="Amil_T-to-Recipient_T" style="stroke:#181818;stroke-width:3.125;"/><polygon fill="#181818" points="206.6875,1153.2813,232.3309,1136.2611,215.0746,1140.098,211.2377,1122.8418,206.6875,1153.2813" style="stroke:#181818;stroke-width:3.125;"/><text fill="#000000" font-family="Arial" font-size="34.375" lengthAdjust="spacing" textLength="240.625" x="378.125" y="1025.7202">Disbursement</text></g><!--link Amil_T to DonorID--><g class="link" data-entity-1="ent0004" data-entity-2="ent0007" data-link-type="dependency" data-source-line="24" id="lnk13"><path d="M990.9375,827.125 C902.4063,910.3438 714.0979,1087.3128 607.5042,1187.5315" fill="none" id="Amil_T-to-DonorID" style="stroke:#181818;stroke-width:3.125;"/><polygon fill="#181818" points="593.8438,1200.375,622.8967,1190.2168,605.2275,1189.6721,605.7721,1172.0028,593.8438,1200.375" style="stroke:#181818;stroke-width:3.125;"/><text fill="#000000" font-family="Arial" font-size="34.375" lengthAdjust="spacing" textLength="163.063" x="812.5" y="1025.7202">EXPOSED</text></g><!--link Amil_T to RecipientID--><g class="link" data-entity-1="ent0004" data-entity-2="ent0008" data-link-type="dependency" data-source-line="25" id="lnk14"><path d="M1034.375,897.3438 C1034.375,991.25 1034.375,1103.8438 1034.375,1181.5" fill="none" id="Amil_T-to-RecipientID" style="stroke:#181818;stroke-width:3.125;"/><polygon fill="#181818" points="1034.375,1200.25,1046.875,1172.125,1034.375,1184.625,1021.875,1172.125,1034.375,1200.25" style="stroke:#181818;stroke-width:3.125;"/><text fill="#000000" font-family="Arial" font-size="34.375" lengthAdjust="spacing" textLength="163.063" x="1037.5" y="1025.7202">EXPOSED</text></g><!--link Amil_T to Amount--><g class="link" data-entity-1="ent0004" data-entity-2="ent0009" data-link-type="dependency" data-source-line="26" id="lnk15"><path d="M1077.4375,824.6563 C1169.375,906.5313 1371.6243,1086.6846 1485.218,1187.8721" fill="none" id="Amil_T-to-Amount" style="stroke:#181818;stroke-width:3.125;"/><polygon fill="#181818" points="1499.2188,1200.3438,1486.5321,1172.3025,1487.5515,1189.9507,1469.9032,1190.9701,1499.2188,1200.3438" style="stroke:#181818;stroke-width:3.125;"/><text fill="#000000" font-family="Arial" font-size="34.375" lengthAdjust="spacing" textLength="163.063" x="1306.25" y="1025.7202">EXPOSED</text></g><!--link Amil_T to History--><g class="link" data-entity-1="ent0004" data-entity-2="ent0010" data-link-type="dependency" data-source-line="27" id="lnk16"><path d="M1077.2813,796 C1200.7188,824.9375 1565.4688,917.4375 1840.625,1059.4375 C1915.875,1098.25 1978.6452,1143.7727 2033.6452,1188.054" fill="none" id="Amil_T-to-History" style="stroke:#181818;stroke-width:3.125;"/><polygon fill="#181818" points="2048.25,1199.8125,2034.1818,1172.4382,2036.0793,1190.0137,2018.5038,1191.9113,2048.25,1199.8125" style="stroke:#181818;stroke-width:3.125;"/><text fill="#000000" font-family="Arial" font-size="34.375" lengthAdjust="spacing" textLength="163.063" x="1781.25" y="1025.7202">EXPOSED</text></g><!--link Donor_Z to NoirCircuit--><g class="link" data-entity-1="ent0018" data-entity-2="ent0022" data-link-type="dependency" data-source-line="52" id="lnk34"><path d="M4343.875,3395.7813 C4379.9688,3338.8125 4424.4688,3257.6875 4443.75,3178.9375 C4596.5938,2555.0313 4337.5,2379.9063 4337.5,1737.5938 C4337.5,780.0313 4337.5,780.0313 4337.5,780.0313 C4337.5,625.5313 4222.2121,504.7319 4118.5871,423.7631" fill="none" id="Donor_Z-to-NoirCircuit" style="stroke:#181818;stroke-width:3.125;"/><polygon fill="#181818" points="4103.8125,412.2188,4118.2782,439.3851,4116.1247,421.8391,4133.6707,419.6855,4103.8125,412.2188" style="stroke:#181818;stroke-width:3.125;"/><text fill="#000000" font-family="Arial" font-size="34.375" lengthAdjust="spacing" textLength="238.2919" x="4350" y="1950.1264">Private Inputs</text></g><!--link NoirCircuit to BBProver--><g class="link" data-entity-1="ent0022" data-entity-2="ent0023" data-link-type="dependency" data-source-line="53" id="lnk35"><path d="M3797.0313,412.0313 C3750.9375,442.9063 3707.1563,482.625 3681.25,531.9063 C3672.2187,549.125 3672.2187,558.4375 3681.25,575.6563 C3707.1563,624.9688 3735.3545,654.2601 3781.4482,685.1038" fill="none" id="NoirCircuit-to-BBProver" style="stroke:#181818;stroke-width:3.125;"/><polygon fill="#181818" points="3797.0313,695.5313,3780.6083,669.5014,3784.0454,686.8417,3766.7051,690.2788,3797.0313,695.5313" style="stroke:#181818;stroke-width:3.125;"/><text fill="#000000" font-family="Arial" font-size="34.375" lengthAdjust="spacing" textLength="267.9672" x="3684.375" y="566.9389">ACIR + Witness</text></g><!--link BBProver to ZKVerifier--><g class="link" data-entity-1="ent0023" data-entity-2="ent0025" data-link-type="dependency" data-source-line="54" id="lnk36"><path d="M3951.375,871.0625 C3940.7813,907.5625 3929.3438,950.875 3921.875,990.6875 C3910.0625,1053.75 3904.3214,1107.2722 3900.1964,1161.7722" fill="none" id="BBProver-to-ZKVerifier" style="stroke:#181818;stroke-width:3.125;"/><polygon fill="#181818" points="3898.7812,1180.4688,3913.3683,1153.3674,3899.9605,1164.8883,3888.4396,1151.4806,3898.7812,1180.4688" style="stroke:#181818;stroke-width:3.125;"/><text fill="#000000" font-family="Arial" font-size="34.375" lengthAdjust="spacing" textLength="284.5001" x="3925" y="1025.7202">UltraHONK Proof</text></g><!--link ZKVerifier to ZKTCore--><g class="link" data-entity-1="ent0025" data-entity-2="ent0027" data-link-type="dependency" data-source-line="55" id="lnk37"><path d="M3814.4375,1355.9688 C3779.7813,1398.75 3742.9688,1453.4688 3725,1510.0625 C3710.9688,1554.2188 3714.003,1586.8704 3727.628,1628.4329" fill="none" id="ZKVerifier-to-ZKTCore" style="stroke:#181818;stroke-width:3.125;"/><polygon fill="#181818" points="3733.4688,1646.25,3736.5856,1615.6305,3728.6014,1631.4024,3712.8295,1623.4183,3733.4688,1646.25" style="stroke:#181818;stroke-width:3.125;"/><text fill="#000000" font-family="Arial" font-size="34.375" lengthAdjust="spacing" textLength="132.9681" x="3728.125" y="1545.0952">Verified</text></g><!--link Groth16 to ShariaMgr--><g class="link" data-entity-1="ent0026" data-entity-2="ent0028" data-link-type="dependency" data-source-line="56" id="lnk38"><path d="M2893.75,1822.1563 C2893.75,1889.8438 2893.75,1965.5313 2893.75,2033.1563" fill="none" id="Groth16-to-ShariaMgr" style="stroke:#181818;stroke-width:3.125;"/><polygon fill="#181818" points="2893.75,2051.9063,2906.25,2023.7813,2893.75,2036.2813,2881.25,2023.7813,2893.75,2051.9063" style="stroke:#181818;stroke-width:3.125;"/><text fill="#000000" font-family="Arial" font-size="34.375" lengthAdjust="spacing" textLength="125.885" x="2896.875" y="1950.1264">verifies</text></g><!--link ZKTCore to ShariaMgr--><g class="link" data-entity-1="ent0027" data-entity-2="ent0028" data-link-type="dependency" data-source-line="57" id="lnk39"><path d="M3588.875,1820.6875 C3440.0625,1888.25 3248.0719,1975.4656 3098.1344,2043.5593" fill="none" id="ZKTCore-to-ShariaMgr" style="stroke:#181818;stroke-width:3.125;"/><polygon fill="#181818" points="3081.0625,2051.3125,3111.8392,2051.064,3095.2891,2044.8515,3101.5016,2028.3015,3081.0625,2051.3125" style="stroke:#181818;stroke-width:3.125;"/><text fill="#000000" font-family="Arial" font-size="34.375" lengthAdjust="spacing" textLength="169.0887" x="3359.375" y="1950.1264">delegates</text></g><!--link ZKTCore to Escrow--><g class="link" data-entity-1="ent0027" data-entity-2="ent0029" data-link-type="dependency" data-source-line="58" id="lnk40"><path d="M3838.6562,1822.3438 C3857,1850.3125 3874.5312,1882.625 3884.375,1915.0938 C3914.25,2013.7188 3907.5066,2290.7653 3901.5691,2437.7965" fill="none" id="ZKTCore-to-Escrow" style="stroke:#181818;stroke-width:3.125;"/><polygon fill="#181818" points="3900.8125,2456.5313,3914.4372,2428.9335,3901.443,2440.919,3889.4575,2427.9248,3900.8125,2456.5313" style="stroke:#181818;stroke-width:3.125;"/><text fill="#000000" font-family="Arial" font-size="34.375" lengthAdjust="spacing" textLength="214.592" x="3906.25" y="2152.6577">Route Public</text></g><!--link ZKTCore to PrivatePool--><g class="link" data-entity-1="ent0027" data-entity-2="ent0030" data-link-type="dependency" data-source-line="59" id="lnk41"><path d="M3704.2812,1822.1563 C3650.1875,1889.8438 3586.3956,1969.636 3532.3331,2037.261" fill="none" id="ZKTCore-to-PrivatePool" style="stroke:#181818;stroke-width:3.125;"/><polygon fill="#181818" points="3520.625,2051.9063,3547.9506,2037.7438,3530.3817,2039.7019,3528.4236,2022.133,3520.625,2051.9063" style="stroke:#181818;stroke-width:3.125;"/><text fill="#000000" font-family="Arial" font-size="34.375" lengthAdjust="spacing" textLength="232.7026" x="3625" y="1950.1264">Route Private</text></g><!--link PrivatePool to Escrow--><g class="link" data-entity-1="ent0030" data-entity-2="ent0029" data-link-type="dependency" data-source-line="60" id="lnk42"><path d="M3529,2227.5 C3568.3437,2269.9688 3618,2321.25 3665.625,2363.875 C3701.0625,2395.625 3726.7258,2416.6266 3763.9133,2444.8766" fill="none" id="PrivatePool-to-Escrow" style="stroke:#181818;stroke-width:3.125;stroke-dasharray:21.875,21.875;"/><polygon fill="#181818" points="3778.8438,2456.2188,3764.0095,2429.2519,3766.4017,2446.767,3748.8866,2449.1592,3778.8438,2456.2188" style="stroke:#181818;stroke-width:3.125;"/><text fill="#000000" font-family="Arial" font-size="34.375" lengthAdjust="spacing" textLength="209.7076" x="3668.75" y="2355.1577">Redistribute</text></g><!--link Escrow to ReceiptNFT--><g class="link" data-entity-1="ent0029" data-entity-2="ent0031" data-link-type="dependency" data-source-line="61" id="lnk43"><path d="M3765.9687,2632.7813 C3736.8125,2658.6563 3709.8125,2689.75 3693.75,2725.1563 C3660.625,2798.0938 3700.0299,2860.8031 3757.9987,2916.3969" fill="none" id="Escrow-to-ReceiptNFT" style="stroke:#181818;stroke-width:3.125;"/><polygon fill="#181818" points="3771.5313,2929.375,3759.8845,2900.8861,3760.2541,2918.5599,3742.5803,2918.9295,3771.5313,2929.375" style="stroke:#181818;stroke-width:3.125;"/><text fill="#000000" font-family="Arial" font-size="34.375" lengthAdjust="spacing" textLength="215.3305" x="3696.875" y="2780.5014">Mint Receipt</text></g><!--link ReceiptNFT to Donor_Z--><g class="link" data-entity-1="ent0031" data-entity-2="ent0018" data-link-type="dependency" data-source-line="62" id="lnk44"><path d="M3958.25,3105.2813 C4039.7813,3195.4063 4153.7371,3321.3424 4224.8308,3399.9674" fill="none" id="ReceiptNFT-to-Donor_Z" style="stroke:#181818;stroke-width:3.125;"/><polygon fill="#181818" points="4237.4063,3413.875,4227.8148,3384.63,4226.9267,3402.2853,4209.2714,3401.3972,4237.4063,3413.875" style="stroke:#181818;stroke-width:3.125;"/><text fill="#000000" font-family="Arial" font-size="34.375" lengthAdjust="spacing" textLength="194.7693" x="4100" y="3259.5952">SBT Minted</text></g><!--link Escrow to Recipient_Z--><g class="link" data-entity-1="ent0029" data-entity-2="ent0020" data-link-type="dependency" data-source-line="63" id="lnk45"><path d="M3971.5625,2632.0938 C4043.7813,2713.6875 4140.4853,2822.9855 4215.0166,2907.2667" fill="none" id="Escrow-to-Recipient_Z" style="stroke:#181818;stroke-width:3.125;stroke-dasharray:21.875,21.875;"/><polygon fill="#181818" points="4227.4375,2921.3125,4218.17,2891.9632,4217.0867,2909.6077,4199.4423,2908.5244,4227.4375,2921.3125" style="stroke:#181818;stroke-width:3.125;"/><text fill="#000000" font-family="Arial" font-size="34.375" lengthAdjust="spacing" textLength="250.6958" x="4128.125" y="2760.1889">Amil-managed</text><text fill="#000000" font-family="Arial" font-size="34.375" lengthAdjust="spacing" textLength="235.9756" x="4135.4851" y="2800.2036">disbursement</text></g><!--link Organizer_Z to OrganizerNFT--><g class="link" data-entity-1="ent0019" data-entity-2="ent0033" data-link-type="dependency" data-source-line="64" id="lnk46"><path d="M3191.875,897.3438 C3234.0625,983.5313 3283.4102,1084.3794 3322.0039,1163.1919" fill="none" id="Organizer_Z-to-OrganizerNFT" style="stroke:#181818;stroke-width:3.125;"/><polygon fill="#181818" points="3330.25,1180.0313,3329.1071,1149.2748,3323.3783,1165.9984,3306.6546,1160.2696,3330.25,1180.0313" style="stroke:#181818;stroke-width:3.125;"/><text fill="#000000" font-family="Arial" font-size="34.375" lengthAdjust="spacing" textLength="211.4365" x="3256.25" y="1025.7202">KYC Verified</text></g><!--link Organizer_Z to VotingNFT--><g class="link" data-entity-1="ent0019" data-entity-2="ent0032" data-link-type="dependency" data-source-line="65" id="lnk47"><path d="M3052.3125,875.625 C3024.5938,909.3125 2996.3125,949.5 2978.125,990.6875 C2951.5938,1050.8125 2941.6712,1105.7934 2936.6712,1161.6684" fill="none" id="Organizer_Z-to-VotingNFT" style="stroke:#181818;stroke-width:3.125;"/><polygon fill="#181818" points="2935,1180.3438,2949.957,1153.4448,2936.3926,1164.7809,2925.0565,1151.2166,2935,1180.3438" style="stroke:#181818;stroke-width:3.125;"/><text fill="#000000" font-family="Arial" font-size="34.375" lengthAdjust="spacing" textLength="198.8983" x="2981.25" y="1025.7202">Tiered Vote</text></g><?plantuml-src VLNTRzem47_dhpYnbrKJLRj9UyZ39A1qHLq10UisL6aoyP5OJUp8TbgngV_xpeaJpDV4Y-_kTz-_7EPPo89fbiEQnS-9LgNaGvKf3UzkH-xNCIt2f8ohLo4JsB3CO63Xk65bPc-Lj1EM8_IrODbf-qByGRY-3em59MO9pXZdBlR7m2GLFwddXO1FLrUTJiSxGtUf6HTMACaoMB5dPc6nDHPpquM_7G0MM-hfHacbVo-16UXMxsvhwkSYynRtt1dc68j2eBJUsihT3c4qnfR99ACAPkKw4p4CCXK_noaJ4huXJr3N1G34AY-K9CUwZF7DhWmOSz8Bk-qU8Dja7jtAPptwEQtGDg6PcuZN7IBlXA7-jXMKfYSDzUlGNk_WRwx5PcYztfTcIX4qiSdkTSuSpeemmgnBRJ0dnJwk6K04ev-pwM9qSoRCUOXlyuorQMrdVWkeihfVmaohGXday40KouuviZh5aQbEc2J-DkPMFiMMrV_PCjriUiEA9LJA2n6yw_3-VSIOYH9wA7HSYdgrJWQlU9BlfJ1i3HyWPQ_PnU6U1mCN5NNbE61QeqMvHfqyoU-PrUnkEhc76jBkF2XqP5FKMEQmm49bWbLr-lTHdQlxHzHY8tosdKX5fioam6ISAdrKurUjR7hzkNBoxy2J3WyT52YqKXjpv4lh72gDFc7r9X-bunGDjMTFf5jK0H-IkifQckEBm5VIaNDCv8f5TYxZoCHQlTO9tQcfvThrqrMFiorOaQCgxP7hJ8iNPd6cL5RvUxdvd9pUvQytstkfPy0lJjm558MTt2xtllITce8i1iiZlqTbYLwDMoiHsjAeJoHgATxuX0fok_yrl3Yu5Alg4mmP6pLjmrWMfJK43SqEtf8qWlvmF2Sk_n1Med7OrkQ00SCYsEElsX0sCDVecXiHU3KdJ4Cs1zWn8G8_RLE5gVqE8NGhCA563Z6U4H7CQUa8zL_10IPSVGkiTOGChPUNOKJaTCsqM9SLpklzcMn84C63sD62O86jFRYqcGY85HMsceGFvlA5XokgRcalPvBk9N-IVF-GXsVG1T_ZI0H4YN3QX-WT1IDOLgHpAkoy_GC0?></g></svg>