<?plantuml 1.2026.1?><svg xmlns="http://www.w3.org/2000/svg" xmlns:xlink="http://www.w3.org/1999/xlink" contentStyleType="text/css" data-diagram-type="DESCRIPTION" height="1487.5px" preserveAspectRatio="none" style="width:6834px;height:1487px;" version="1.1" viewBox="0 0 6834 1487" width="6834.375px" zoomAndPan="magnify"><defs/><g><!--cluster Off-chain proving--><g class="cluster" data-qualified-name="Off-chain proving" data-source-line="29" id="ent0004"><path d="M6346.875,18.75 L6605.4321,18.75 A23.4375,23.4375 0 0 1 6621.0571,34.375 L6642.9321,73.877 L6796.875,73.877 A15.625,15.625 0 0 1 6812.5,89.502 L6812.5,1399.4375 A15.625,15.625 0 0 1 6796.875,1415.0625 L6346.875,1415.0625 A15.625,15.625 0 0 1 6331.25,1399.4375 L6331.25,34.375 A15.625,15.625 0 0 1 6346.875,18.75" fill="none" style="stroke:#888780;stroke-width:2.5;stroke-dasharray:21.875,21.875;"/><line style="stroke:#888780;stroke-width:2.5;stroke-dasharray:21.875,21.875;" x1="6331.25" x2="6642.9321" y1="73.877" y2="73.877"/><text fill="#000000" font-family="Arial" font-size="31.25" lengthAdjust="spacing" textLength="271.0571" x="6343.75" y="54.007">Off-chain proving</text></g><!--cluster Ethereum Sepolia--><g class="cluster" data-qualified-name="Ethereum Sepolia" data-source-line="37" id="ent0009"><path d="M34.375,352.9687 L299.6918,352.9687 A23.4375,23.4375 0 0 1 315.3168,368.5937 L337.1918,408.0957 L5371.875,408.0957 A15.625,15.625 0 0 1 5387.5,423.7207 L5387.5,1452.625 A15.625,15.625 0 0 1 5371.875,1468.25 L34.375,1468.25 A15.625,15.625 0 0 1 18.75,1452.625 L18.75,368.5937 A15.625,15.625 0 0 1 34.375,352.9687" fill="none" style="stroke:#888780;stroke-width:2.5;stroke-dasharray:21.875,21.875;"/><line style="stroke:#888780;stroke-width:2.5;stroke-dasharray:21.875,21.875;" x1="18.75" x2="337.1918" y1="408.0957" y2="408.0957"/><text fill="#000000" font-family="Arial" font-size="31.25" lengthAdjust="spacing" textLength="277.8168" x="31.25" y="388.2257">Ethereum Sepolia</text></g><!--cluster Core--><g class="cluster" data-qualified-name="Ethereum Sepolia.Core" data-source-line="39" id="ent0010"><path d="M1515.625,471.7187 L1576.1383,471.7187 A23.4375,23.4375 0 0 1 1591.7633,487.3437 L1613.6383,526.8457 L2293.75,526.8457 A15.625,15.625 0 0 1 2309.375,542.4707 L2309.375,1377.625 A15.625,15.625 0 0 1 2293.75,1393.25 L1515.625,1393.25 A15.625,15.625 0 0 1 1500,1377.625 L1500,487.3437 A15.625,15.625 0 0 1 1515.625,471.7187" fill="none" style="stroke:#888780;stroke-width:2.5;stroke-dasharray:21.875,21.875;"/><line style="stroke:#888780;stroke-width:2.5;stroke-dasharray:21.875,21.875;" x1="1500" x2="1613.6383" y1="526.8457" y2="526.8457"/><text fill="#000000" font-family="Arial" font-size="31.25" lengthAdjust="spacing" textLength="73.0133" x="1512.5" y="506.9757">Core</text></g><!--cluster Governance--><g class="cluster" data-qualified-name="Ethereum Sepolia.Governance" data-source-line="46" id="ent0015"><path d="M2400,827.875 L2576.5717,827.875 A23.4375,23.4375 0 0 1 2592.1967,843.5 L2614.0717,883.002 L5296.875,883.002 A15.625,15.625 0 0 1 5312.5,898.627 L5312.5,1377.625 A15.625,15.625 0 0 1 5296.875,1393.25 L2400,1393.25 A15.625,15.625 0 0 1 2384.375,1377.625 L2384.375,843.5 A15.625,15.625 0 0 1 2400,827.875" fill="none" style="stroke:#888780;stroke-width:2.5;stroke-dasharray:21.875,21.875;"/><line style="stroke:#888780;stroke-width:2.5;stroke-dasharray:21.875,21.875;" x1="2384.375" x2="2614.0717" y1="883.002" y2="883.002"/><text fill="#000000" font-family="Arial" font-size="31.25" lengthAdjust="spacing" textLength="189.0717" x="2396.875" y="863.132">Governance</text></g><!--cluster Identity--><g class="cluster" data-qualified-name="Ethereum Sepolia.Identity" data-source-line="57" id="ent0024"><path d="M109.375,471.7187 L216.6412,471.7187 A23.4375,23.4375 0 0 1 232.2662,487.3437 L254.1412,526.8457 L1409.375,526.8457 A15.625,15.625 0 0 1 1425,542.4707 L1425,706 A15.625,15.625 0 0 1 1409.375,721.625 L109.375,721.625 A15.625,15.625 0 0 1 93.75,706 L93.75,487.3437 A15.625,15.625 0 0 1 109.375,471.7187" fill="none" style="stroke:#888780;stroke-width:2.5;stroke-dasharray:21.875,21.875;"/><line style="stroke:#888780;stroke-width:2.5;stroke-dasharray:21.875,21.875;" x1="93.75" x2="254.1412" y1="526.8457" y2="526.8457"/><text fill="#000000" font-family="Arial" font-size="31.25" lengthAdjust="spacing" textLength="119.7662" x="106.25" y="506.9757">Identity</text></g><!--cluster Frontend--><g class="cluster" data-qualified-name="Frontend" data-source-line="65" id="ent0028"><path d="M5771.875,471.7187 L5900.2441,471.7187 A23.4375,23.4375 0 0 1 5915.8691,487.3437 L5937.7441,526.8457 L6240.625,526.8457 A15.625,15.625 0 0 1 6256.25,542.4707 L6256.25,1399.4375 A15.625,15.625 0 0 1 6240.625,1415.0625 L5771.875,1415.0625 A15.625,15.625 0 0 1 5756.25,1399.4375 L5756.25,487.3437 A15.625,15.625 0 0 1 5771.875,471.7187" fill="none" style="stroke:#888780;stroke-width:2.5;stroke-dasharray:21.875,21.875;"/><line style="stroke:#888780;stroke-width:2.5;stroke-dasharray:21.875,21.875;" x1="5756.25" x2="5937.7441" y1="526.8457" y2="526.8457"/><text fill="#000000" font-family="Arial" font-size="31.25" lengthAdjust="spacing" textLength="140.8691" x="5768.75" y="506.9757">Frontend</text></g><!--entity Witness--><g class="entity" data-qualified-name="Off-chain proving.Witness" data-source-line="30" id="ent0005"><rect fill="#F1F1F1" height="149.8047" rx="12.5" ry="12.5" style="stroke:#888780;stroke-width:1.5625;" width="333.8257" x="6392.4688" y="112.5"/><text fill="#000000" font-family="Arial" font-size="37.5" lengthAdjust="spacing" textLength="148.114" x="6423.7188" y="178.5583">Witness</text><text fill="#000000" font-family="Arial" font-size="37.5" lengthAdjust="spacing" textLength="271.3257" x="6423.7188" y="222.2107">nargo execute</text></g><!--entity Circuit--><g class="entity" data-qualified-name="Off-chain proving.Circuit" data-source-line="31" id="ent0006"><rect fill="#F1F1F1" height="149.8047" rx="12.5" ry="12.5" style="stroke:#888780;stroke-width:1.5625;" width="379.7302" x="6382" y="543.625"/><text fill="#000000" font-family="Arial" font-size="37.5" lengthAdjust="spacing" textLength="204.7119" x="6413.25" y="609.6833">Noir circuit</text><text fill="#000000" font-family="Arial" font-size="37.5" lengthAdjust="spacing" textLength="317.2302" x="6413.25" y="653.3357">29 ACIR opcodes</text></g><!--entity BB--><g class="entity" data-qualified-name="Off-chain proving.BB" data-source-line="32" id="ent0007"><rect fill="#F1F1F1" height="106.1523" rx="12.5" ry="12.5" style="stroke:#888780;stroke-width:1.5625;" width="372.2778" x="6382.625" y="921.625"/><text fill="#000000" font-family="Arial" font-size="37.5" lengthAdjust="spacing" textLength="309.7778" x="6413.875" y="987.6833">Barretenberg bb</text></g><!--entity Proof--><g class="entity" data-qualified-name="Off-chain proving.Proof" data-source-line="33" id="ent0008"><rect fill="#F1F1F1" height="149.8047" rx="12.5" ry="12.5" style="stroke:#888780;stroke-width:1.5625;" width="374.054" x="6381.7188" y="1215.2813"/><text fill="#000000" font-family="Arial" font-size="37.5" lengthAdjust="spacing" textLength="311.554" x="6412.9688" y="1281.3396">UltraHONK proof</text><text fill="#000000" font-family="Arial" font-size="37.5" lengthAdjust="spacing" textLength="308.4045" x="6412.9688" y="1324.9919">8,384 B, 270 ms</text></g><!--entity Verifier--><g class="entity" data-qualified-name="Ethereum Sepolia.Core.Verifier" data-source-line="40" id="ent0011"><rect fill="#F1F1F1" height="106.1523" rx="12.5" ry="12.5" style="stroke:#888780;stroke-width:1.5625;" width="249.4507" x="2009.6563" y="565.4688"/><text fill="#000000" font-family="Arial" font-size="37.5" lengthAdjust="spacing" textLength="186.9507" x="2040.9063" y="631.5271">ZKVerifier</text></g><!--entity Groth16--><g class="entity" data-qualified-name="Ethereum Sepolia.Core.Groth16" data-source-line="41" id="ent0012"><rect fill="#F1F1F1" height="106.1523" rx="12.5" ry="12.5" style="stroke:#888780;stroke-width:1.5625;" width="352.7771" x="1548.625" y="565.4688"/><text fill="#000000" font-family="Arial" font-size="37.5" lengthAdjust="spacing" textLength="290.2771" x="1579.875" y="631.5271">Groth16Verifier</text></g><!--entity ZKTCore--><g class="entity" data-qualified-name="Ethereum Sepolia.Core.ZKTCore" data-source-line="42" id="ent0013"><rect fill="#F1F1F1" height="106.1523" rx="12.5" ry="12.5" style="stroke:#888780;stroke-width:1.5625;" width="223.3032" x="2035.2188" y="921.625"/><text fill="#000000" font-family="Arial" font-size="37.5" lengthAdjust="spacing" textLength="160.8032" x="2066.4688" y="987.6833">ZKTCore</text></g><!--entity Nullifier--><g class="entity" data-qualified-name="Ethereum Sepolia.Core.Nullifier" data-source-line="43" id="ent0014"><rect fill="#F1F1F1" height="106.1523" rx="12.5" ry="12.5" style="stroke:#888780;stroke-width:1.5625;" width="362.8845" x="1896.6875" y="1237.0937"/><text fill="#000000" font-family="Arial" font-size="37.5" lengthAdjust="spacing" textLength="300.3845" x="1927.9375" y="1303.1521">NullifierRegistry</text></g><!--entity PropMgr--><g class="entity" data-qualified-name="Ethereum Sepolia.Governance.PropMgr" data-source-line="47" id="ent0016"><rect fill="#F1F1F1" height="106.1523" rx="12.5" ry="12.5" style="stroke:#888780;stroke-width:1.5625;" width="387.5305" x="2950" y="921.625"/><text fill="#000000" font-family="Arial" font-size="37.5" lengthAdjust="spacing" textLength="325.0305" x="2981.25" y="987.6833">ProposalManager</text></g><!--entity VoteMgr--><g class="entity" data-qualified-name="Ethereum Sepolia.Governance.VoteMgr" data-source-line="48" id="ent0017"><rect fill="#F1F1F1" height="106.1523" rx="12.5" ry="12.5" style="stroke:#888780;stroke-width:1.5625;" width="348.1628" x="3863.4063" y="921.625"/><text fill="#000000" font-family="Arial" font-size="37.5" lengthAdjust="spacing" textLength="285.6628" x="3894.6563" y="987.6833">VotingManager</text></g><!--entity ShariaMgr--><g class="entity" data-qualified-name="Ethereum Sepolia.Governance.ShariaMgr" data-source-line="49" id="ent0018"><rect fill="#F1F1F1" height="106.1523" rx="12.5" ry="12.5" style="stroke:#888780;stroke-width:1.5625;" width="388.9221" x="4874.2813" y="921.625"/><text fill="#000000" font-family="Arial" font-size="37.5" lengthAdjust="spacing" textLength="326.4221" x="4905.5313" y="987.6833">ShariaReviewMgr</text></g><!--entity PrivatePool--><g class="entity" data-qualified-name="Ethereum Sepolia.Governance.PrivatePool" data-source-line="50" id="ent0019"><rect fill="#F1F1F1" height="106.1523" rx="12.5" ry="12.5" style="stroke:#888780;stroke-width:1.5625;" width="443.2129" x="4322.1563" y="921.625"/><text fill="#000000" font-family="Arial" font-size="37.5" lengthAdjust="spacing" textLength="380.7129" x="4353.4063" y="987.6833">PrivateDonationPool</text></g><!--entity PoolMgr--><g class="entity" data-qualified-name="Ethereum Sepolia.Governance.PoolMgr" data-source-line="51" id="ent0020"><rect fill="#F1F1F1" height="106.1523" rx="12.5" ry="12.5" style="stroke:#888780;stroke-width:1.5625;" width="305.7922" x="3447.0938" y="921.625"/><text fill="#000000" font-family="Arial" font-size="37.5" lengthAdjust="spacing" textLength="243.2922" x="3478.3438" y="987.6833">PoolManager</text></g><!--entity Escrow--><g class="entity" data-qualified-name="Ethereum Sepolia.Governance.Escrow" data-source-line="52" id="ent0021"><rect fill="#F1F1F1" height="106.1523" rx="12.5" ry="12.5" style="stroke:#888780;stroke-width:1.5625;" width="375.0244" x="4328.125" y="1237.0937"/><text fill="#000000" font-family="Arial" font-size="37.5" lengthAdjust="spacing" textLength="312.5244" x="4359.375" y="1303.1521">ZakatEscrowMgr</text></g><!--entity MilestoneMgr--><g class="entity" data-qualified-name="Ethereum Sepolia.Governance.MilestoneMgr" data-source-line="53" id="ent0022"><rect fill="#F1F1F1" height="106.1523" rx="12.5" ry="12.5" style="stroke:#888780;stroke-width:1.5625;" width="407.1594" x="2433.9063" y="921.625"/><text fill="#000000" font-family="Arial" font-size="37.5" lengthAdjust="spacing" textLength="344.6594" x="2465.1563" y="987.6833">MilestoneManager</text></g><!--entity NFT--><g class="entity" data-qualified-name="Ethereum Sepolia.Governance.NFT" data-source-line="54" id="ent0023"><rect fill="#F1F1F1" height="106.1523" rx="12.5" ry="12.5" style="stroke:#888780;stroke-width:1.5625;" width="447.168" x="4813.9063" y="1237.0937"/><text fill="#000000" font-family="Arial" font-size="37.5" lengthAdjust="spacing" textLength="384.668" x="4845.1563" y="1303.1521">DonationReceiptNFT</text></g><!--entity VotingNFT--><g class="entity" data-qualified-name="Ethereum Sepolia.Identity.VotingNFT" data-source-line="58" id="ent0025"><rect fill="#F1F1F1" height="106.1523" rx="12.5" ry="12.5" style="stroke:#888780;stroke-width:1.5625;" width="256.3171" x="571.8438" y="565.4688"/><text fill="#000000" font-family="Arial" font-size="37.5" lengthAdjust="spacing" textLength="193.8171" x="603.0938" y="631.5271">VotingNFT</text></g><!--entity OrganizerNFT--><g class="entity" data-qualified-name="Ethereum Sepolia.Identity.OrganizerNFT" data-source-line="59" id="ent0026"><rect fill="#F1F1F1" height="106.1523" rx="12.5" ry="12.5" style="stroke:#888780;stroke-width:1.5625;" width="319.104" x="143.5625" y="565.4688"/><text fill="#000000" font-family="Arial" font-size="37.5" lengthAdjust="spacing" textLength="256.604" x="174.8125" y="631.5271">OrganizerNFT</text></g><!--entity Tracker--><g class="entity" data-qualified-name="Ethereum Sepolia.Identity.Tracker" data-source-line="60" id="ent0027"><rect fill="#F1F1F1" height="106.1523" rx="12.5" ry="12.5" style="stroke:#888780;stroke-width:1.5625;" width="440.4114" x="936.0312" y="565.4688"/><text fill="#000000" font-family="Arial" font-size="37.5" lengthAdjust="spacing" textLength="377.9114" x="967.2812" y="631.5271">ParticipationTracker</text></g><!--entity Wallet--><g class="entity" data-qualified-name="Frontend.Wallet" data-source-line="66" id="ent0029"><rect fill="#F1F1F1" height="106.1523" rx="12.5" ry="12.5" style="stroke:#888780;stroke-width:1.5625;" width="399.8718" x="5806.3125" y="565.4688"/><text fill="#000000" font-family="Arial" font-size="37.5" lengthAdjust="spacing" textLength="337.3718" x="5837.5625" y="631.5271">wagmi + XellarKit</text></g><!--entity Hook--><g class="entity" data-qualified-name="Frontend.Hook" data-source-line="67" id="ent0030"><rect fill="#F1F1F1" height="106.1523" rx="12.5" ry="12.5" style="stroke:#888780;stroke-width:1.5625;" width="331.1157" x="5840.6875" y="921.625"/><text fill="#000000" font-family="Arial" font-size="37.5" lengthAdjust="spacing" textLength="268.6157" x="5871.9375" y="987.6833">donation hook</text></g><!--entity Toggle--><g class="entity" data-qualified-name="Frontend.Toggle" data-source-line="68" id="ent0031"><rect fill="#F1F1F1" height="149.8047" rx="12.5" ry="12.5" style="stroke:#888780;stroke-width:1.5625;" width="274.4629" x="5869.0313" y="1215.2813"/><text fill="#000000" font-family="Arial" font-size="37.5" lengthAdjust="spacing" textLength="211.9629" x="5900.2813" y="1281.3396">Privacy tier</text><text fill="#000000" font-family="Arial" font-size="37.5" lengthAdjust="spacing" textLength="118.7439" x="5900.2813" y="1324.9919">toggle</text></g><!--entity Donor--><g class="entity" data-qualified-name="Donor" data-source-line="25" id="ent0002"><ellipse cx="5640.6295" cy="529.5313" fill="#F1F1F1" rx="25" ry="25" style="stroke:#181818;stroke-width:1.5625;"/><path d="M5640.6295,554.5313 L5640.6295,638.9063 M5600.0045,579.5313 L5681.2545,579.5313 M5640.6295,638.9063 L5600.0045,685.7813 M5640.6295,638.9063 L5681.2545,685.7813" fill="none" style="stroke:#181818;stroke-width:1.5625;"/><text fill="#000000" font-family="Arial" font-size="37.5" lengthAdjust="spacing" textLength="113.9465" x="5583.6563" y="725.2771">Donor</text></g><!--entity Organizer--><g class="entity" data-qualified-name="Organizer" data-source-line="26" id="ent0003"><ellipse cx="700.0067" cy="98.375" fill="#F1F1F1" rx="25" ry="25" style="stroke:#181818;stroke-width:1.5625;"/><path d="M700.0067,123.375 L700.0067,207.75 M659.3817,148.375 L740.6317,148.375 M700.0067,207.75 L659.3817,254.625 M700.0067,207.75 L740.6317,254.625" fill="none" style="stroke:#181818;stroke-width:1.5625;"/><text fill="#000000" font-family="Arial" font-size="37.5" lengthAdjust="spacing" textLength="184.0759" x="607.9688" y="294.1208">Organizer</text></g><!--link Donor to Witness--><g class="link" data-entity-1="ent0002" data-entity-2="ent0005" data-link-type="dependency" data-source-line="72" id="lnk32"><path d="M5640.625,501.4687 C5640.625,374.625 5640.625,190.125 5640.625,190.125 C5640.625,190.125 6108.1875,190.125 6373.1875,190.125" fill="none" id="Donor-to-Witness" style="stroke:#888780;stroke-width:3.125;"/><polygon fill="#888780" points="6391.9375,190.125,6363.8125,177.625,6376.3125,190.125,6363.8125,202.625,6391.9375,190.125" style="stroke:#888780;stroke-width:3.125;"/><text fill="#000000" font-family="Arial" font-size="37.5" lengthAdjust="spacing" textLength="115.9973" x="5741.8438" y="181.1833">inputs</text></g><!--link Witness to Circuit--><g class="link" data-entity-1="ent0005" data-entity-2="ent0006" data-link-type="dependency" data-source-line="73" id="lnk33"><path d="M6559.375,263.4688 C6559.375,342.2812 6559.375,445.9375 6559.375,524.4688" fill="none" id="Witness-to-Circuit" style="stroke:#888780;stroke-width:3.125;"/><polygon fill="#888780" points="6559.375,543.2188,6571.875,515.0938,6559.375,527.5938,6546.875,515.0938,6559.375,543.2188" style="stroke:#888780;stroke-width:3.125;"/><text fill="#000000" font-family="Arial" font-size="37.5" lengthAdjust="spacing" textLength="218.1702" x="6340.625" y="394.4021">Prover.toml</text></g><!--link Circuit to BB--><g class="link" data-entity-1="ent0006" data-entity-2="ent0007" data-link-type="dependency" data-source-line="74" id="lnk34"><path d="M6568.75,694.9375 C6568.75,762.8125 6568.75,841.5312 6568.75,901.6875" fill="none" id="Circuit-to-BB" style="stroke:#888780;stroke-width:3.125;"/><polygon fill="#888780" points="6568.75,920.4375,6581.25,892.3125,6568.75,904.8125,6556.25,892.3125,6568.75,920.4375" style="stroke:#888780;stroke-width:3.125;"/><text fill="#000000" font-family="Arial" font-size="37.5" lengthAdjust="spacing" textLength="88.9526" x="6478.125" y="798.7458">ACIR</text></g><!--link BB to Proof--><g class="link" data-entity-1="ent0007" data-entity-2="ent0008" data-link-type="dependency" data-source-line="75" id="lnk35"><path d="M6630.7813,1028.2188 C6630.7813,1079.1875 6630.7813,1137.7188 6630.7813,1195.125" fill="none" id="BB-to-Proof" style="stroke:#888780;stroke-width:3.125;"/><polygon fill="#888780" points="6630.7813,1213.875,6643.2813,1185.75,6630.7813,1198.25,6618.2813,1185.75,6630.7813,1213.875" style="stroke:#888780;stroke-width:3.125;"/><text fill="#000000" font-family="Arial" font-size="37.5" lengthAdjust="spacing" textLength="107.428" x="6521.4063" y="1112.1208">prove</text></g><!--link Proof to Verifier--><g class="link" data-entity-1="ent0008" data-entity-2="ent0011" data-link-type="dependency" data-source-line="78" id="lnk36"><path d="M6506.7188,1214.1875 C6506.7188,1195.5 6506.7188,1180.75 6506.7188,1180.75 C6506.7188,1180.75 2022.4375,1180.75 2022.4375,1180.75 C2022.4375,1180.75 2022.4375,831.9062 2022.4375,691.1875" fill="none" id="Proof-to-Verifier" style="stroke:#888780;stroke-width:3.125;"/><polygon fill="#888780" points="2022.4375,672.4375,2009.9375,700.5625,2022.4375,688.0625,2034.9375,700.5625,2022.4375,672.4375" style="stroke:#888780;stroke-width:3.125;"/><text fill="#000000" font-family="Arial" font-size="37.5" lengthAdjust="spacing" textLength="98.3093" x="3927.125" y="1218.6833">proof</text></g><!--link Verifier to ZKTCore--><g class="link" data-entity-1="ent0011" data-entity-2="ent0013" data-link-type="dependency" data-source-line="81" id="lnk37"><path d="M2213.875,672.625 C2213.875,739.5625 2213.875,834.1563 2213.875,901.3438" fill="none" id="Verifier-to-ZKTCore" style="stroke:#888780;stroke-width:3.125;"/><polygon fill="#888780" points="2213.875,920.0938,2226.375,891.9688,2213.875,904.4688,2201.375,891.9688,2213.875,920.0938" style="stroke:#888780;stroke-width:3.125;"/><text fill="#000000" font-family="Arial" font-size="37.5" lengthAdjust="spacing" textLength="172.522" x="2038.875" y="787.4333">verify OK</text></g><!--link ZKTCore to Nullifier--><g class="link" data-entity-1="ent0013" data-entity-2="ent0014" data-link-type="dependency" data-source-line="82" id="lnk38"><path d="M2213.875,1028.2188 C2213.875,1086.2188 2213.875,1159.5312 2213.875,1217.6563" fill="none" id="ZKTCore-to-Nullifier" style="stroke:#888780;stroke-width:3.125;"/><polygon fill="#888780" points="2213.875,1236.4063,2226.375,1208.2813,2213.875,1220.7813,2201.375,1208.2813,2213.875,1236.4063" style="stroke:#888780;stroke-width:3.125;"/><text fill="#000000" font-family="Arial" font-size="37.5" lengthAdjust="spacing" textLength="113.9832" x="2098.25" y="1123.3708">spend</text></g><!--link Groth16 to ShariaMgr--><g class="link" data-entity-1="ent0012" data-entity-2="ent0018" data-link-type="dependency" data-source-line="85" id="lnk39"><path d="M1722.6563,672.2813 C1722.6563,690.2187 1722.6563,705.75 1722.6563,705.75 C1722.6563,705.75 5068.75,705.75 5068.75,705.75 C5068.75,705.75 5068.75,822.9375 5068.75,901.5312" fill="none" id="Groth16-to-ShariaMgr" style="stroke:#888780;stroke-width:3.125;"/><polygon fill="#888780" points="5068.75,920.2812,5081.25,892.1562,5068.75,904.6562,5056.25,892.1562,5068.75,920.2812" style="stroke:#888780;stroke-width:3.125;"/><text fill="#000000" font-family="Arial" font-size="37.5" lengthAdjust="spacing" textLength="137.3291" x="3348.7187" y="696.8083">verifies</text></g><!--link ZKTCore to PropMgr--><g class="link" data-entity-1="ent0013" data-entity-2="ent0016" data-link-type="dependency" data-source-line="86" id="lnk40"><path d="M2169.2188,920.4688 C2169.2188,898.25 2169.2188,877.625 2169.2188,877.625 C2169.2188,877.625 3143.75,877.625 3143.75,877.625 C3143.75,877.625 3143.75,879.5 3143.75,901.7188" fill="none" id="ZKTCore-to-PropMgr" style="stroke:#888780;stroke-width:3.125;"/><polygon fill="#888780" points="3143.75,920.4688,3156.25,892.3438,3143.75,904.8438,3131.25,892.3438,3143.75,920.4688" style="stroke:#888780;stroke-width:3.125;"/><text fill="#000000" font-family="Arial" font-size="37.5" lengthAdjust="spacing" textLength="161.8469" x="2493.9688" y="868.6833">proposal</text></g><!--link ZKTCore to VoteMgr--><g class="link" data-entity-1="ent0013" data-entity-2="ent0017" data-link-type="dependency" data-source-line="87" id="lnk41"><path d="M2079.875,920.5313 C2079.875,864.125 2079.875,783.875 2079.875,783.875 C2079.875,783.875 4037.5,783.875 4037.5,783.875 C4037.5,783.875 4037.5,845.375 4037.5,901.7813" fill="none" id="ZKTCore-to-VoteMgr" style="stroke:#888780;stroke-width:3.125;"/><polygon fill="#888780" points="4037.5,920.5313,4050,892.4063,4037.5,904.9063,4025,892.4063,4037.5,920.5313" style="stroke:#888780;stroke-width:3.125;"/><text fill="#000000" font-family="Arial" font-size="37.5" lengthAdjust="spacing" textLength="117.8284" x="2939.9375" y="774.9333">voting</text></g><!--link ZKTCore to ShariaMgr--><g class="link" data-entity-1="ent0013" data-entity-2="ent0018" data-link-type="dependency" data-source-line="88" id="lnk42"><path d="M2124.5313,1028 C2124.5313,1064.2813 2124.5313,1105.75 2124.5313,1105.75 C2124.5313,1105.75 5067.6875,1105.75 5067.6875,1105.75 C5067.6875,1105.75 5067.6875,1083.0313 5067.6875,1046.75" fill="none" id="ZKTCore-to-ShariaMgr" style="stroke:#888780;stroke-width:3.125;"/><polygon fill="#888780" points="5067.6875,1028,5055.1875,1056.125,5067.6875,1043.625,5080.1875,1056.125,5067.6875,1028" style="stroke:#888780;stroke-width:3.125;"/><text fill="#000000" font-family="Arial" font-size="37.5" lengthAdjust="spacing" textLength="124.8413" x="3471.125" y="1096.8083">review</text></g><!--link ZKTCore to PrivatePool--><g class="link" data-entity-1="ent0013" data-entity-2="ent0019" data-link-type="dependency" data-source-line="89" id="lnk43"><path d="M2169.2188,1029.125 C2169.2188,1049.6875 2169.2188,1068.25 2169.2188,1068.25 C2169.2188,1068.25 4453.125,1068.25 4453.125,1068.25 C4453.125,1068.25 4453.125,1068.4375 4453.125,1047.875" fill="none" id="ZKTCore-to-PrivatePool" style="stroke:#888780;stroke-width:3.125;"/><polygon fill="#888780" points="4453.125,1029.125,4440.625,1057.25,4453.125,1044.75,4465.625,1057.25,4453.125,1029.125" style="stroke:#888780;stroke-width:3.125;"/><text fill="#000000" font-family="Arial" font-size="37.5" lengthAdjust="spacing" textLength="275.7751" x="3033.0313" y="1106.1833">private donate</text></g><!--link ZKTCore to Escrow--><g class="link" data-entity-1="ent0013" data-entity-2="ent0021" data-link-type="dependency" data-source-line="90" id="lnk44"><path d="M2259.6563,993.25 C2305,993.25 2346.75,993.25 2346.75,993.25 C2346.75,993.25 2346.75,1293.25 2346.75,1293.25 C2346.75,1293.25 3780.5313,1293.25 4308.1875,1293.25" fill="none" id="ZKTCore-to-Escrow" style="stroke:#888780;stroke-width:3.125;"/><polygon fill="#888780" points="4326.9375,1293.25,4298.8125,1280.75,4311.3125,1293.25,4298.8125,1305.75,4326.9375,1293.25" style="stroke:#888780;stroke-width:3.125;"/><text fill="#000000" font-family="Arial" font-size="37.5" lengthAdjust="spacing" textLength="256.0181" x="2887.0625" y="1284.3083">public donate</text></g><!--link ZKTCore to PoolMgr--><g class="link" data-entity-1="ent0013" data-entity-2="ent0020" data-link-type="dependency" data-source-line="91" id="lnk45"><path d="M2124.5313,920.2812 C2124.5313,879.5 2124.5313,830.75 2124.5313,830.75 C2124.5313,830.75 3600,830.75 3600,830.75 C3600,830.75 3600,860.75 3600,901.5312" fill="none" id="ZKTCore-to-PoolMgr" style="stroke:#888780;stroke-width:3.125;"/><polygon fill="#888780" points="3600,920.2812,3612.5,892.1562,3600,904.6562,3587.5,892.1562,3600,920.2812" style="stroke:#888780;stroke-width:3.125;"/><text fill="#000000" font-family="Arial" font-size="37.5" lengthAdjust="spacing" textLength="276.9287" x="2584.1563" y="821.8083">campaign pool</text></g><!--link ZKTCore to MilestoneMgr--><g class="link" data-entity-1="ent0013" data-entity-2="ent0022" data-link-type="dependency" data-source-line="92" id="lnk46"><path d="M2259.4375,958.875 C2310.9375,958.875 2354.8438,958.875 2414.2188,958.875" fill="none" id="ZKTCore-to-MilestoneMgr" style="stroke:#888780;stroke-width:3.125;"/><polygon fill="#888780" points="2432.9688,958.875,2404.8438,946.375,2417.3438,958.875,2404.8438,971.375,2432.9688,958.875" style="stroke:#888780;stroke-width:3.125;"/><text fill="#000000" font-family="Arial" font-size="37.5" lengthAdjust="spacing" textLength="203.9978" x="2244.625" y="996.8083">milestones</text></g><!--link PrivatePool to Escrow--><g class="link" data-entity-1="ent0019" data-entity-2="ent0021" data-link-type="dependency" data-source-line="93" id="lnk47"><path d="M4578.125,1028.2188 C4578.125,1086.2188 4578.125,1159.5312 4578.125,1217.6563" fill="none" id="PrivatePool-to-Escrow" style="stroke:#888780;stroke-width:3.125;stroke-dasharray:21.875,21.875;"/><polygon fill="#888780" points="4578.125,1236.4063,4590.625,1208.2813,4578.125,1220.7813,4565.625,1208.2813,4578.125,1236.4063" style="stroke:#888780;stroke-width:3.125;"/><text fill="#000000" font-family="Arial" font-size="37.5" lengthAdjust="spacing" textLength="218.1335" x="4359.375" y="1123.3708">redistribute</text></g><!--link Escrow to NFT--><g class="link" data-entity-1="ent0021" data-entity-2="ent0023" data-link-type="dependency" data-source-line="96" id="lnk48"><path d="M4704.0313,1293.25 C4739.375,1293.25 4757.875,1293.25 4794.1563,1293.25" fill="none" id="Escrow-to-NFT" style="stroke:#888780;stroke-width:3.125;"/><polygon fill="#888780" points="4812.9063,1293.25,4784.7813,1280.75,4797.2813,1293.25,4784.7813,1305.75,4812.9063,1293.25" style="stroke:#888780;stroke-width:3.125;"/><text fill="#000000" font-family="Arial" font-size="37.5" lengthAdjust="spacing" textLength="169.7754" x="4674.0938" y="1331.1833">mint SBT</text></g><!--link NFT to Donor--><g class="link" data-entity-1="ent0023" data-entity-2="ent0002" data-link-type="dependency" data-source-line="97" id="lnk49"><path d="M5262.0938,1293.25 C5433.5625,1293.25 5640.625,1293.25 5640.625,1293.25 C5640.625,1293.25 5640.625,946.1875 5640.625,753.2813" fill="none" id="NFT-to-Donor" style="stroke:#888780;stroke-width:3.125;"/><polygon fill="#888780" points="5640.625,734.5313,5628.125,762.6563,5640.625,750.1563,5653.125,762.6563,5640.625,734.5313" style="stroke:#888780;stroke-width:3.125;"/><text fill="#000000" font-family="Arial" font-size="37.5" lengthAdjust="spacing" textLength="131.1035" x="5509.375" y="1194.2146">receipt</text></g><!--link Organizer to OrganizerNFT--><g class="link" data-entity-1="ent0003" data-entity-2="ent0026" data-link-type="dependency" data-source-line="100" id="lnk50"><path d="M606.9375,190.125 C489.6563,190.125 303.125,190.125 303.125,190.125 C303.125,190.125 303.125,430.25 303.125,545.5313" fill="none" id="Organizer-to-OrganizerNFT" style="stroke:#888780;stroke-width:3.125;"/><polygon fill="#888780" points="303.125,564.2813,315.625,536.1563,303.125,548.6563,290.625,536.1563,303.125,564.2813" style="stroke:#888780;stroke-width:3.125;"/><text fill="#000000" font-family="Arial" font-size="37.5" lengthAdjust="spacing" textLength="73.6816" x="228.125" y="216.3396">KYC</text></g><!--link Organizer to VotingNFT--><g class="link" data-entity-1="ent0003" data-entity-2="ent0025" data-link-type="dependency" data-source-line="101" id="lnk51"><path d="M700,304.0625 C700,388.8437 700,480.9687 700,545.875" fill="none" id="Organizer-to-VotingNFT" style="stroke:#888780;stroke-width:3.125;"/><polygon fill="#888780" points="700,564.625,712.5,536.5,700,549,687.5,536.5,700,564.625" style="stroke:#888780;stroke-width:3.125;"/><text fill="#000000" font-family="Arial" font-size="37.5" lengthAdjust="spacing" textLength="117.8284" x="581.25" y="425.4021">voting</text></g><!--link Organizer to Tracker--><g class="link" data-entity-1="ent0003" data-entity-2="ent0027" data-link-type="dependency" data-source-line="102" id="lnk52"><path d="M793.4375,283.875 C926.9063,283.875 1156.25,283.875 1156.25,283.875 C1156.25,283.875 1156.25,451.4062 1156.25,546.0312" fill="none" id="Organizer-to-Tracker" style="stroke:#888780;stroke-width:3.125;"/><polygon fill="#888780" points="1156.25,564.7812,1168.75,536.6562,1156.25,549.1562,1143.75,536.6562,1156.25,564.7812" style="stroke:#888780;stroke-width:3.125;"/><text fill="#000000" font-family="Arial" font-size="37.5" lengthAdjust="spacing" textLength="140.2954" x="974.6563" y="274.9333">metrics</text></g><!--link Donor to Wallet--><g class="link" data-entity-1="ent0002" data-entity-2="ent0029" data-link-type="dependency" data-source-line="105" id="lnk53"><path d="M5698.5625,621.375 C5728.1563,621.375 5747.375,621.375 5786.4688,621.375" fill="none" id="Donor-to-Wallet" style="stroke:#888780;stroke-width:3.125;"/><polygon fill="#888780" points="5805.2188,621.375,5777.0938,608.875,5789.5938,621.375,5777.0938,633.875,5805.2188,621.375" style="stroke:#888780;stroke-width:3.125;"/><text fill="#000000" font-family="Arial" font-size="37.5" lengthAdjust="spacing" textLength="149.4873" x="5678.4375" y="659.3083">connect</text></g><!--link Wallet to Hook--><g class="link" data-entity-1="ent0029" data-entity-2="ent0030" data-link-type="dependency" data-source-line="106" id="lnk54"><path d="M6006.25,672.625 C6006.25,739.5625 6006.25,834.1563 6006.25,901.3438" fill="none" id="Wallet-to-Hook" style="stroke:#888780;stroke-width:3.125;"/><polygon fill="#888780" points="6006.25,920.0938,6018.75,891.9688,6006.25,904.4688,5993.75,891.9688,6006.25,920.0938" style="stroke:#888780;stroke-width:3.125;"/><text fill="#000000" font-family="Arial" font-size="37.5" lengthAdjust="spacing" textLength="131.2683" x="5871.875" y="787.4333">donate</text></g><!--link Hook to Toggle--><g class="link" data-entity-1="ent0030" data-entity-2="ent0031" data-link-type="dependency" data-source-line="107" id="lnk55"><path d="M6006.25,1028.2188 C6006.25,1079.1875 6006.25,1137.7188 6006.25,1195.125" fill="none" id="Hook-to-Toggle" style="stroke:#888780;stroke-width:3.125;"/><polygon fill="#888780" points="6006.25,1213.875,6018.75,1185.75,6006.25,1198.25,5993.75,1185.75,6006.25,1213.875" style="stroke:#888780;stroke-width:3.125;"/><text fill="#000000" font-family="Arial" font-size="37.5" lengthAdjust="spacing" textLength="63.6108" x="5940.625" y="1112.1208">tier</text></g><!--link Hook to Proof--><g class="link" data-entity-1="ent0030" data-entity-2="ent0008" data-link-type="dependency" data-source-line="108" id="lnk56"><path d="M6157.6563,1028.7188 C6157.6563,1119.625 6157.6563,1293.25 6157.6563,1293.25 C6157.6563,1293.25 6254.0625,1293.25 6362.5,1293.25" fill="none" id="Hook-to-Proof" style="stroke:#888780;stroke-width:3.125;"/><polygon fill="#888780" points="6381.25,1293.25,6353.125,1280.75,6365.625,1293.25,6353.125,1305.75,6381.25,1293.25" style="stroke:#888780;stroke-width:3.125;"/><text fill="#000000" font-family="Arial" font-size="37.5" lengthAdjust="spacing" textLength="95.3613" x="6160.7813" y="1263.8396">fetch</text></g><!--link Hook to ZKTCore--><g class="link" data-entity-1="ent0030" data-entity-2="ent0013" data-link-type="dependency" data-source-line="109" id="lnk57"><path d="M5854.8438,1028.9688 C5854.8438,1078.2188 5854.8438,1143.25 5854.8438,1143.25 C5854.8438,1143.25 2079.875,1143.25 2079.875,1143.25 C2079.875,1143.25 2079.875,1096.9688 2079.875,1047.7188" fill="none" id="Hook-to-ZKTCore" style="stroke:#888780;stroke-width:3.125;"/><polygon fill="#888780" points="2079.875,1028.9688,2067.375,1057.0938,2079.875,1044.5938,2092.375,1057.0938,2079.875,1028.9688" style="stroke:#888780;stroke-width:3.125;"/><text fill="#000000" font-family="Arial" font-size="37.5" lengthAdjust="spacing" textLength="177.5757" x="3789.25" y="1134.3083">submit tx</text></g><?plantuml-src bLNDRjj64BxpAHRkeOT6XkoqZUf30SkDaq2rR4XgsWQ-hCWHkT1obrWkfQX5W9xw04MVC4_IsJzoAJA76ZvmPxwT-MPcvrEzPwAYYfPaIzDzhcGZiZl9fI9QKL6Z2uHEwXPL5pIJHoPoigEyXiYJmOusNDzBePUq17Ah6ENZ_ZNx0yZLTUIyLKeUNTwlPhFPgzdqtBafMBeNKDVaAd9n9a2VAY1IwKB6sIf6NawdIMHIa6egSWxapuIGkLGPg7xAOEroJI-_G-lATKK9K6IMV8g3LjWrcl-_aBFMkjOdf9FHke3iBC-LkMkRPJ4Lfqm4YstVr12XgSPaFqaXbVz-L3aL2519yZNv_EzV-4z-XfqcgUHDAMx8usutIGkCvhr9AE6YyrHA7d365xQihcyNlp9jQdWMWgfS4lW8QQFXWj2QU5SVlvHCaPIfj67wMLp_G6xltgs8h5APGMsltJbd_zgSAWKQn1PKJhPR2vpF-vXVE3xGju_BXI4hTyzYzkBbx5ioVq6kNqr9wQ8_6PVfKzkA1vPbUBrjXlX2Brxh0XGq9Lb39JcZfXL8eFNZbC2rfyVgm-8zABPZe6p-S3Y7lL5I5rVVzx3UDeouSRaGuh_F8Sk6Snjd1JchjJfPS6j5-ASUzpVo04fGaOvLW2shP4tv0nK8Lg6DrKC-gEAzrFX8OY1QO0IuBYYAmGeE38xejb1d6m4_ANQW6l1DKysaU9AIUnBMRiw3AsZhyJNdOUGFT4_rwpf5DGaitEaS-C0ur5eAY8Dsnc7aG7O5AR1AB-ytRWJtcq7ptsKeg4oVHbhl-XakjwTpMBlX0HaR1gsXIhEKLPRUHY4BNux_jlpY1LcnlEZ4ubwXte381liH70E9EDAyPEGRyXjmJjM2QQSEb7Cus_BCDuqKKkujwYr-9CF7a9w8ndVyBBJCqUhesyyUyqw-TbmU0sEhZTYJ2VviYScFGQV83K49RtIT14C0U4L203vxN9HBBKkU16j0pUV4_jrOIKl2CRYjy5YtaLA8M3hFvx__QSKXC0rt9igC08EqW1kdSN6jOgJK5XzOUBsmF0x6UIAFYwIr1bYh50YhAnngbAZJYbugBrPaWjVRJGvP6DHHab2D5v7G52io8p0l8OwpNO4HK9nIMLaPJTWAXarfJyI-EXY1EobmCwsQBMVfbx5UO2msfML5MOu_caQPXjXODn1UXcETn0GlB_iC56H6ojaMVr-ZSU26z-RGNcdJ6OIDK3AXoNg-IRmbmlYTC5ciNiKFAsX9Bqrd3MycrXmCjFZzRWJKIbWtoo782v5X35XmMaTiMlaPs-Yk7gSkPXPI21IFn1kw9swKnRN5ppGOEXfMK0p2QCtGtstq3dHQH8308emUbwZPbgWL-kD_?></g></svg>